<?xml version="1.0" encoding="UTF-8"?>
<svg id="Layer_2" data-name="Layer 2" xmlns="http://www.w3.org/2000/svg" viewBox="0 0 720 637.92">
  <g id="Layer_1-2" data-name="Layer 1">
    <g>
      <path d="m443.37,637.92c1.62-.8,3.41-.82,5.14-.98,14.42-1.38,27.49-6.37,39.35-14.6,11.59-8.05,20.58-18.42,27.09-30.92,4.73-9.09,7.72-18.75,9.01-28.94.45-3.59.55-7.17.55-10.77,0-90.56,0-181.12,0-271.68,0-.32,0-.64,0-.96-.07-2.25-.23-2.4-2.53-2.45-.8-.02-1.6,0-2.4,0-79.25,0-158.5,0-237.76,0-4.85,0-4.57.45-4.57-4.51,0-44,0-88,0-132,0-12.7,2.79-24.78,8.4-36.13,7.36-14.87,18.27-26.54,32.59-34.94,10.14-5.95,21.08-9.5,32.8-10.69,15.42-1.57,30.14.84,44.04,7.72,15.42,7.64,27.29,19.11,35.78,34.05,7.59,13.36,11.25,27.77,11.21,43.15-.05,23.04-.01,46.08-.01,69.12q0,3.52,3.57,3.53c25.11,0,50.22,0,75.33,0q3.56,0,3.56-3.6c0-41.76-.07-83.52.03-125.28.04-17.05-4.29-32.79-13.58-47.02-13.58-20.82-32.61-33.67-57.2-38.03-2.91-.52-5.84-.89-8.81-.94-.88-.01-1.77-.03-2.54-.55h275.43c-.94.57-2,.56-3.03.55-2.41-.02-4.79.3-7.16.66-18.21,2.79-33.85,10.74-46.95,23.66-8.19,8.07-14.43,17.49-18.86,28.1-3.73,8.93-6,18.25-6.39,27.92-.48,12.06-.47,24.14-.49,36.19-.18,126.86-.08,253.71-.15,380.57-.01,18.87.76,37.72.56,56.59-.05,5.06.72,10.05,1.8,14.97,3.98,18.12,12.74,33.53,26.54,45.96,13.68,12.32,29.64,19.55,48.03,21.28,1.57.15,3.2.18,4.65.97h-273.03Z"/>
      <path d="m279.27.48c-.86.54-1.83.5-2.79.56-19.59,1.13-36.62,8.41-51.14,21.51-14.84,13.39-23.85,30.05-27.3,49.72-.73,4.18-1.19,8.4-1.19,12.64-.06,90.56-.09,181.12-.13,271.67,0,.48-.02.96.02,1.44.13,1.51.35,1.74,1.91,1.82.88.05,1.76.02,2.64.02,77.81,0,155.63,0,233.44,0,.88,0,1.76-.02,2.64.01,1.94.08,2.13.28,2.22,2.28.03.64.01,1.28.01,1.92,0,42.08,0,84.16,0,126.24,0,20.4-6.43,38.55-19.67,54.06-12.98,15.22-29.42,24.63-49.22,27.96-17.09,2.87-33.46.54-49-7.09-14.53-7.12-25.86-17.83-34.32-31.58-7.16-11.65-11.21-24.36-12.4-37.97-.24-2.7-.18-5.44-.18-8.15-.01-23.04,0-46.08,0-69.12q0-3.54-3.52-3.55c-23.67,0-47.34,0-71.02,0q-3.53,0-3.54,3.59c0,34.96,0,69.92,0,104.88,0,9.92,0,19.84.14,29.76.16,11.66,2.61,22.85,7.37,33.51,6.62,14.81,16.59,26.88,29.93,36.11,10.36,7.16,21.8,11.69,34.24,13.65,2.6.41,5.23.68,7.84.99.72.09,1.43.15,2.06.56H4.8c.69-.47,1.5-.48,2.3-.59,4.03-.57,8.1-.87,12.08-1.77,18.84-4.23,34.5-13.71,46.88-28.5,13.12-15.67,19.73-33.84,20.17-54.22.23-10.87.16-21.75.15-32.63-.03-143.42-.07-286.83-.12-430.25,0-3.6-.04-7.19-.37-10.78-.69-7.53-2.24-14.85-4.81-21.96-4.82-13.34-12.47-24.82-22.97-34.35C43.5,9.61,26.38,2.21,6.62,1.04c-.96-.06-1.93-.01-2.79-.56h275.43Z"/>
    </g>
  </g>
</svg>